#!OML:ASF Y:\EmotionMaleHayes\Project 1\Capture day 1\Session 1\Male1.ASF
:FULLY-SPECIFIED
:DEGREES
1827
root 20.2026 16.8426 -18.8294 1096.51 -80.5702 700.922
lowerback 8.19653 2.46731 -0.938278
upperback 11.2523 2.57605 2.8318
thorax 7.07236 0.852685 3.42702
lowerneck -21.3346 3.16497 7.63846
upperneck 29.7934 -0.914376 5.9025
head 13.827 1.1374 0.856288
rclavicle 3.69739e-014 -3.97569e-016
rhumerus -2.97328 5.82592 -75.2245
rradius 31.5847
rwrist 4.69124
rhand -13.5684 -35.0591
rfingers 7.12502
rthumb 12.5452 -64.6624
lclavicle 3.69739e-014 -3.97569e-016
lhumerus -28.1695 -12.4681 87.7645
lradius 16.3258
lwrist -32.9612
lhand -2.82521 -23.5931
lfingers 7.12502
lthumb 22.8817 5.06931
rfemur -7.23885 -5.95663 23.8306
rtibia 18.8272
rfoot -13.6425 -0.0587706
rtoes 1.11625
lfemur -9.3469 0.276369 -12.6775
ltibia 59.2461
lfoot -9.3369 3.41266
ltoes -4.01623
1828
root 20.1092 16.859 -18.8406 1097.06 -80.5111 700.416
lowerback 8.01394 2.63102 -0.883032
upperback 11.3616 2.79246 2.80316
thorax 7.28596 0.960365 3.37232
lowerneck -21.396 3.60341 7.87052
upperneck 29.6531 -0.262523 5.67211
head 13.7817 1.41534 0.842839
rclavicle 1.82882e-014 -3.18055e-015
rhumerus -2.48492 4.98935 -75.2915
rradius 32.0075
rwrist 4.01687
rhand -13.801 -35.6017
rfingers 7.12502
rthumb 12.321 -65.2187
lclavicle 1.82882e-014 -3.18055e-015
lhumerus -28.7975 -14.5989 88.3346
lradius 17.1702
lwrist -30.8755
lhand -3.22221 -24.2522
lfingers 7.12502
lthumb 22.5007 4.45688
rfemur -6.70789 -5.99085 24.0013
rtibia 18.4629
rfoot -14.5398 -0.0403295
rtoes 0.512977
lfemur -10.3426 0.506792 -12.6165
ltibia 58.6775
lfoot -10.1112 3.52365
ltoes -5.64494
1829
root 20.0202 16.8751 -18.8542 1099.5 -80.3139 697.963
lowerback 8.03492 2.71306 -0.558545
upperback 11.4149 2.89851 2.90803
thorax 7.33763 1.02954 3.30083
lowerneck -22.5647 3.14186 7.46508
upperneck 30.2506 -1.02091 5.82736
head 14.2864 1.1072 0.868556
rclavicle -4.4329e-014 5.56597e-015
rhumerus -2.13097 4.35009 -75.3753
rradius 32.5332
rwrist 3.547
rhand -14.4945 -35.4398
rfingers 7.12502
rthumb 11.6523 -65.0958
lclavicle -4.4329e-014 5.56597e-015
lhumerus -29.3 -15.9283 88.7329
lradius 17.7309
lwrist -29.2915
lhand -4.6127 -25.3264
lfingers 7.12502
lthumb 21.1655 3.53821
rfemur -6.16532 -5.91184 24.6438
rtibia 18.0827
rfoot -14.3936 -0.174098
rtoes 0.000385128
lfemur -11.3273 0.701645 -12.1064
ltibia 58.0102
lfoot -10.4681 3.70976
ltoes -4.89171
1830
root 19.9272 16.8903 -18.8619 1100.85 -80.1298 696.603
lowerback 8.09395 2.81772 -0.280218
upperback 11.5078 3.03577 2.91733
thorax 7.41358 1.11416 3.15342
lowerneck -24.7458 2.03532 6.81801
upperneck 31.4201 -2.96854 6.39471
head 15.3159 0.371916 0.892079
rclavicle 7.95139e-016 4.01545e-014
rhumerus -1.82227 3.85933 -75.4906
rradius 32.95
rwrist 3.96945
rhand -15.1653 -34.8804
rfingers 7.12502
rthumb 11.0053 -64.5719
lclavicle 7.95139e-016 4.01545e-014
lhumerus -29.7447 -17.778 89.2526
lradius 18.4649
lwrist -26.8643
lhand -5.84254 -26.0269
lfingers 7.12502
lthumb 19.9837 2.96552
rfemur -5.40293 -5.94794 25.0197
rtibia 17.304
rfoot -14.0901 -0.186054
rtoes 0.0841281
lfemur -12.2339 0.811365 -11.8751
ltibia 57.1957
lfoot -10.8674 3.88959
ltoes -6.04545
1831
root 19.8303 16.9049 -18.8615 1099.93 -80.0585 697.565
lowerback 8.09613 2.77595 -0.476698
upperback 10.753 3.04853 2.96732
thorax 6.56214 1.14798 3.28618
lowerneck -19.6187 3.74907 7.94073
upperneck 29.694 0.343009 5.01786
head 13.4156 1.56471 0.643951
rclavicle 2.68359e-014 -5.1684e-015
rhumerus -3.24966 4.44088 -75.4587
rradius 33.4266
rwrist 3.93892
rhand -15.277 -34.8073
rfingers 7.12502
rthumb 10.8976 -64.5045
lclavicle 2.68359e-014 -5.1684e-015
lhumerus -32.2862 -18.517 90.3966
lradius 19.3641
lwrist -24.6255
lhand -6.32428 -26.0342
lfingers 7.12502
lthumb 19.5206 3.00589
rfemur -4.65667 -6.36073 24.7887
rtibia 16.5911
rfoot -14.3338 0.122785
rtoes 0.650393
lfemur -13.086 0.771966 -12.2571
ltibia 56.3133
lfoot -11.6073 3.99393
ltoes -2.29129
1832
root 19.732 16.9184 -18.8643 1100.09 -80.0015 697.405
lowerback 8.1336 2.96572 -0.217568
upperback 10.7174 3.3225 2.82886
thorax 6.5076 1.31314 2.98504
lowerneck -20.038 3.3452 7.67958
upperneck 29.8897 -0.334531 5.36786
head 13.5821 1.30083 0.719373
rclavicle 3.77691e-014 4.13472e-014
rhumerus -2.99412 3.94714 -75.5825
rradius 33.4197
rwrist 3.36269
rhand -15.8008 -34.6105
rfingers 7.12502
rthumb 10.3923 -64.3337
lclavicle 3.77691e-014 4.13472e-014
lhumerus -32.9173 -20.0118 90.8384
lradius 19.9688
lwrist -22.231
lhand -7.4915 -26.4513
lfingers 7.12502
lthumb 18.3981 2.69869
rfemur -3.92688 -6.61092 24.8046
rtibia 16.0643
rfoot -14.2347 0.341255
rtoes 0.647974
lfemur -13.7929 0.873341 -12.364
ltibia 55.2155
lfoot -11.9814 3.91837
ltoes -1.65459
